<svg width="84.000000" height="84.000000" viewBox="0 0 84 84" fill="none" xmlns="http://www.w3.org/2000/svg" xmlns:xlink="http://www.w3.org/1999/xlink">
	<desc>
			Created with Pixso.
	</desc>
	<defs>
		<clipPath id="clip67_11707">
			<rect id="streamline:bank-solid" rx="0.000000" width="35.000000" height="35.000000" transform="translate(24.500000 24.500000)" fill="white" fill-opacity="0"/>
		</clipPath>
	</defs>
	<rect id="Rectangle " rx="22.000000" width="84.000000" height="84.000000" fill="#EA5D39" fill-opacity="0"/>
	<rect id="Rectangle " rx="22.000000" width="84.000000" height="84.000000" fill="#FFFFFF" fill-opacity="0.120000"/>
	<rect id="streamline:bank-solid" rx="0.000000" width="35.000000" height="35.000000" transform="translate(24.500000 24.500000)" fill="#FFFFFF" fill-opacity="0"/>
	<g clip-path="url(#clip67_11707)">
		<path id="Vector" d="M42 24.16C41.42 24.16 40.85 24.32 40.37 24.63L25.17 34.58C24.09 35.29 23.76 36.52 24.17 37.56C24.58 38.57 25.59 39.25 26.8 39.25L57.19 39.25C58.4 39.25 59.41 38.57 59.82 37.56C60.23 36.52 59.9 35.29 58.83 34.58L58.82 34.58L43.62 24.63C43.14 24.32 42.57 24.16 42 24.16ZM24 54.54C24 52.99 25.47 52.25 26.57 52.25L26.71 52.25L26.7 52.11L26.7 43.85C26.7 43.51 26.84 43.19 27.08 42.95C27.32 42.7 27.64 42.57 27.99 42.57L32.26 42.57C32.61 42.57 32.93 42.7 33.17 42.95C33.41 43.19 33.55 43.51 33.55 43.85L33.55 52.11L33.54 52.25L38.58 52.25L38.57 52.11L38.57 43.85C38.57 43.51 38.71 43.19 38.95 42.95C39.19 42.7 39.51 42.57 39.86 42.57L44.13 42.57C44.3 42.57 44.47 42.6 44.63 42.67C44.78 42.73 44.92 42.83 45.04 42.95C45.16 43.06 45.26 43.21 45.32 43.36C45.39 43.52 45.42 43.69 45.42 43.85L45.42 52.11L45.41 52.25L50.45 52.25L50.44 52.11L50.44 43.85C50.44 43.51 50.58 43.19 50.82 42.95C51.06 42.7 51.38 42.57 51.73 42.57L56 42.57C56.35 42.57 56.67 42.7 56.91 42.95C57.15 43.19 57.29 43.51 57.29 43.85L57.29 52.11L57.28 52.25L57.42 52.25C58.52 52.25 60 52.99 60 54.54L60 57.54C60 59.08 58.52 59.83 57.42 59.83L26.57 59.83C25.47 59.83 24 59.08 24 57.54L24 54.54Z" fill="#FFFFFF" fill-opacity="1.000000" fill-rule="evenodd"/>
	</g>
</svg>
