<svg width="84.000000" height="84.000000" viewBox="0 0 84 84" fill="none" xmlns="http://www.w3.org/2000/svg" xmlns:xlink="http://www.w3.org/1999/xlink">
	<desc>
			Created with Pixso.
	</desc>
	<defs/>
	<rect rx="22.000000" width="84.000000" height="84.000000" fill="#FCE700" fill-opacity="1.000000"/>
	<path d="M42 48.75L24.61 65.62L17.74 58.95L35.13 42.08L31.48 38.54L31.48 31.62L28.96 29.17L28.96 35.25L26.78 37.36L17.92 28.83L15.75 30.94C15.75 29.34 16.09 24.7 20.09 20.9C24.44 16.85 29.13 18.71 30.78 20.23L39.65 28.75L37.39 30.94L42 35.41L46.6 30.94L44.34 28.75L53.21 20.14C54.86 18.62 59.55 16.77 63.9 20.82C67.9 24.7 68.25 29.26 68.25 30.86L66.07 28.75L57.21 37.36L55.03 35.25L55.03 29.17L52.51 31.62L52.51 38.54L48.86 42.08L66.25 58.95L59.38 65.62L42 48.75Z" fill="#2D2E30" fill-opacity="1.000000" fill-rule="nonzero"/>
</svg>
