<svg width="210.000977" height="22.000000" viewBox="0 0 210.001 22" fill="none" xmlns="http://www.w3.org/2000/svg" xmlns:xlink="http://www.w3.org/1999/xlink">
	<desc>
			Created with Pixso.
	</desc>
	<defs/>
	<path id="Vector" d="M142 0L148.38 0C148.96 0 150.7 -0.23 151.47 2.98C152.05 5.04 152.82 8.25 153.98 13.06L154.37 13.06C155.53 8.02 156.5 4.58 156.88 2.98C157.65 -0.23 159.59 0 160.36 0L166.35 0L166.35 22L160.17 22L160.17 8.93L159.78 8.93L156.5 22L151.86 22L148.57 8.93L147.99 8.93L147.99 22L142 22L142 0ZM168.87 0L175.05 0L175.05 13.06L175.63 13.06L179.69 2.29C180.47 0.23 182.21 0 182.21 0L188.01 0L188.01 22L181.82 22L181.82 8.93L181.43 8.93L177.37 19.7C176.6 21.77 174.67 22 174.67 22L168.87 22L168.87 0ZM196.32 15.35L196.32 22L190.52 22L190.52 10.54L209.46 10.54C208.69 13.29 205.98 15.35 202.89 15.35L196.32 15.35Z" fill="#FFFFFF" fill-opacity="0.180000" fill-rule="nonzero"/>
	<path id="Vector" d="M209.85 9.16C210.62 5.04 208.3 0 203.28 0L190.13 0C190.52 4.81 194 9.16 197.67 9.16L209.85 9.16Z" fill="#FFFFFF" fill-opacity="0.120000" fill-rule="nonzero"/>
	<path id="Vector" d="M117.42 0.31L113.15 0.31C111.86 0.31 110.86 0.73 110.27 2.09L102.11 21.68L107.88 21.68C107.88 21.68 108.87 19.06 109.07 18.43C109.67 18.43 115.34 18.43 116.13 18.43C116.33 19.17 116.83 21.58 116.83 21.58L122 21.58L117.42 0.31ZM110.66 14.03C111.16 12.78 112.85 8.06 112.85 8.06C112.85 8.17 113.35 6.8 113.55 6.07L113.94 7.96C113.94 7.96 115.04 13.09 115.24 14.14L110.66 14.14L110.66 14.03Z" fill="#FFFFFF" fill-opacity="0.180000" fill-rule="nonzero"/>
	<path id="Vector" d="M102.51 14.66C102.51 19.06 98.74 22 92.87 22C90.38 22 88 21.47 86.71 20.84L87.5 16.02L88.2 16.34C89.99 17.18 91.18 17.49 93.37 17.49C94.96 17.49 96.65 16.86 96.65 15.4C96.65 14.45 95.95 13.82 93.76 12.78C91.68 11.73 88.89 10.05 88.89 7.01C88.89 2.82 92.77 0 98.24 0C100.33 0 102.12 0.41 103.21 0.94L102.41 5.55L102.02 5.13C101.02 4.71 99.73 4.29 97.84 4.29C95.75 4.4 94.76 5.34 94.76 6.18C94.76 7.12 95.95 7.85 97.84 8.8C101.02 10.37 102.51 12.15 102.51 14.66Z" fill="#FFFFFF" fill-opacity="0.180000" fill-rule="nonzero"/>
	<path id="Vector" d="M54 0.52L54.1 0.1L62.65 0.1C63.84 0.1 64.73 0.52 65.03 1.88L66.92 11.31C65.03 6.28 60.66 2.2 54 0.52Z" fill="#FFFFFF" fill-opacity="0.120000" fill-rule="nonzero"/>
	<path id="Vector" d="M78.95 0.31L70.3 21.58L64.43 21.58L59.46 3.77C63.04 6.18 66.03 9.95 67.12 12.57L67.72 14.77L73.08 0.2L78.95 0.2L78.95 0.31Z" fill="#FFFFFF" fill-opacity="0.180000" fill-rule="nonzero"/>
	<path id="Vector" d="M81.24 0.2L86.7 0.2L83.22 21.58L77.76 21.58L81.24 0.2Z" fill="#FFFFFF" fill-opacity="0.180000" fill-rule="nonzero"/>
	<path id="Subtract" d="M17.0039 2.354L17.002 2.354C14.5801 4.3689 13.002 7.48694 13.002 10.9999C13.002 14.5132 14.5771 17.6599 17.0029 19.6464C19.4561 17.6279 21.0039 14.5132 21.0039 10.9999C21.0039 7.48694 19.4258 4.3689 17.0039 2.354ZM17.0029 19.6472L17.002 19.6478L17.0039 19.6478L17.0029 19.6472Z" clip-rule="evenodd" fill="#FFFFFF" fill-opacity="0.260000" fill-rule="evenodd"/>
	<path id="XMLID_330_" d="M12.99 11C12.99 7.48 14.57 4.36 17 2.35C15.21 0.88 12.96 0 10.51 0C4.7 0 0 4.91 0 11C0 17.08 4.7 22 10.51 22C12.96 22 15.21 21.11 17 19.64C14.57 17.66 12.99 14.51 12.99 11Z" fill="#FFFFFF" fill-opacity="0.180000" fill-rule="nonzero"/>
	<path id="path22" d="M34 11C34 17.08 29.29 22 23.48 22C21.03 22 18.78 21.11 17 19.64C19.45 17.62 21 14.51 21 11C21 7.48 19.42 4.36 17 2.35C18.77 0.88 21.02 0 23.48 0C29.29 0 34 4.95 34 11Z" fill="#FFFFFF" fill-opacity="0.120000" fill-rule="nonzero"/>
</svg>
