<svg width="84.000000" height="84.000000" viewBox="0 0 84 84" fill="none" xmlns="http://www.w3.org/2000/svg" xmlns:xlink="http://www.w3.org/1999/xlink">
	<desc>
			Created with Pixso.
	</desc>
	<defs>
		<clipPath id="clip67_11554">
			<rect rx="0.000000" width="83.000000" height="83.000000" transform="translate(0.500000 0.500000)" fill="white" fill-opacity="0"/>
		</clipPath>
	</defs>
	<rect rx="22.000000" width="84.000000" height="84.000000" fill="#EF3124" fill-opacity="1.000000"/>
	<rect rx="0.000000" width="83.000000" height="83.000000" transform="translate(0.500000 0.500000)" fill="#FFFFFF" fill-opacity="0"/>
	<g clip-path="url(#clip67_11554)">
		<path d="M58.05 65.41L25.94 65.41L25.94 58.74L58.05 58.74L58.05 65.41ZM57.34 49.68L50.34 49.68L48.2 42.96L35.54 42.96L33.23 49.68L26.65 49.68L36.58 21.43C37.55 18.69 38.67 16.55 42.29 16.55C45.9 16.55 46.96 18.7 47.87 21.43L57.34 49.68ZM46.38 37.3L42.12 23.91L41.95 23.91L37.44 37.3L46.38 37.3Z" fill="#FFFFFF" fill-opacity="1.000000" fill-rule="evenodd"/>
	</g>
</svg>
