<svg width="84.000000" height="84.000000" viewBox="0 0 84 84" fill="none" xmlns="http://www.w3.org/2000/svg" xmlns:xlink="http://www.w3.org/1999/xlink">
	<desc>
			Created with Pixso.
	</desc>
	<defs>
		<linearGradient x1="41.999989" y1="-0.000011" x2="15.093758" y2="73.500000" id="paint_linear_67_11537_0" gradientUnits="userSpaceOnUse">
			<stop stop-color="#1697BD"/>
			<stop offset="1.000000" stop-color="#E4E243"/>
		</linearGradient>
	</defs>
	<rect rx="22.000000" width="84.000000" height="84.000000" fill="url(#paint_linear_67_11537_0)" fill-opacity="1.000000"/>
	<path d="M60.69 27.59C61.8 29.03 62.74 30.61 63.53 32.29L42.02 48.16L32.99 42.48L32.99 35.69L41.97 41.32L60.69 27.59Z" fill="#FFFFFF" fill-opacity="1.000000" fill-rule="nonzero"/>
	<path d="M23.82 42.02C23.82 41.69 23.82 41.42 23.86 41.09L18.42 40.81C18.42 41.18 18.37 41.6 18.37 41.97C18.37 48.49 21.02 54.4 25.31 58.68L29.17 54.82C25.86 51.56 23.82 47.05 23.82 42.02Z" fill="#FFFFFF" fill-opacity="1.000000" fill-rule="nonzero"/>
	<path d="M41.97 23.86C42.3 23.86 42.58 23.86 42.9 23.91L43.18 18.46C42.81 18.46 42.39 18.42 42.02 18.42C35.5 18.42 29.59 21.07 25.31 25.35L29.17 29.22C32.43 25.91 36.99 23.86 41.97 23.86Z" fill="#FFFFFF" fill-opacity="1.000000" fill-rule="nonzero"/>
	<path d="M41.97 60.17C41.64 60.17 41.37 60.17 41.04 60.13L40.76 65.57C41.13 65.57 41.55 65.62 41.92 65.62C48.44 65.62 54.36 62.97 58.64 58.68L54.77 54.82C51.51 58.17 47 60.17 41.97 60.17Z" fill="#FFFFFF" fill-opacity="1.000000" fill-rule="nonzero"/>
	<path d="M52.21 27.03L56.82 23.63C52.77 20.37 47.6 18.37 41.97 18.37L41.97 23.82C45.79 23.86 49.33 25.03 52.21 27.03Z" fill="#FFFFFF" fill-opacity="1.000000" fill-rule="nonzero"/>
	<path d="M65.62 42.02C65.62 40.58 65.48 39.18 65.25 37.78L60.17 41.55C60.17 41.69 60.17 41.88 60.17 42.02C60.17 47.37 57.84 52.17 54.17 55.47L57.84 59.52C62.59 55.24 65.62 48.95 65.62 42.02Z" fill="#FFFFFF" fill-opacity="1.000000" fill-rule="nonzero"/>
	<path d="M41.97 60.17C36.62 60.17 31.82 57.85 28.52 54.17L24.47 57.85C28.8 62.64 35.04 65.62 41.97 65.62L41.97 60.17Z" fill="#FFFFFF" fill-opacity="1.000000" fill-rule="nonzero"/>
	<path d="M29.82 28.56L26.14 24.51C21.35 28.84 18.37 35.08 18.37 42.02L23.82 42.02C23.82 36.71 26.14 31.87 29.82 28.56Z" fill="#FFFFFF" fill-opacity="1.000000" fill-rule="nonzero"/>
</svg>
