<svg width="34.003906" height="22.000244" viewBox="0 0 34.0039 22.0002" fill="none" xmlns="http://www.w3.org/2000/svg" xmlns:xlink="http://www.w3.org/1999/xlink">
	<desc>
			Created with Pixso.
	</desc>
	<defs/>
	<path id="Subtract" d="M17.0049 2.35413L17.002 2.35413C14.5801 4.36902 13.002 7.48706 13.002 11C13.002 14.5135 14.5771 17.6605 17.0039 19.6469C19.457 17.6284 21.0049 14.5135 21.0049 11C21.0049 7.48706 19.4268 4.36902 17.0049 2.35413ZM17.0039 19.647L17.002 19.6479L17.0049 19.6479C18.7871 21.114 21.0361 22 23.4893 22C29.3008 22 34.0039 17.0802 34.0039 11C34.0039 4.95178 29.3008 0 23.4854 0C21.0322 0 18.7832 0.886353 17.0039 2.35303L17.0049 2.35413L17.0039 19.647Z" clip-rule="evenodd" fill="#FF5F00" fill-opacity="1.000000" fill-rule="evenodd"/>
	<path id="XMLID_330_" d="M12.99 11C12.99 7.48 14.57 4.36 17 2.35C15.21 0.88 12.96 0 10.51 0C4.7 0 0 4.92 0 11C0 17.08 4.7 22 10.51 22C12.96 22 15.21 21.11 17 19.64C14.57 17.66 12.99 14.51 12.99 11Z" fill="#EB001B" fill-opacity="1.000000" fill-rule="nonzero"/>
	<path id="path22" d="M34 11C34 17.08 29.29 22 23.48 22C21.03 22 18.78 21.11 17 19.64C19.45 17.62 21 14.51 21 11C21 7.48 19.42 4.36 17 2.35C18.77 0.88 21.02 0 23.48 0C29.29 0 34 4.95 34 11Z" fill="#F79E1B" fill-opacity="1.000000" fill-rule="nonzero"/>
</svg>
