<svg width="17.500000" height="17.500000" viewBox="0 0 17.5 17.5" fill="none" xmlns="http://www.w3.org/2000/svg" xmlns:xlink="http://www.w3.org/1999/xlink">
	<desc>
			Created with Pixso.
	</desc>
	<defs/>
	<path id="Vector" d="M17.05 8L13.54 11.15L14.61 15.86C14.67 16.11 14.65 16.38 14.56 16.63C14.48 16.87 14.32 17.09 14.12 17.24C13.91 17.4 13.67 17.48 13.41 17.49C13.16 17.5 12.91 17.44 12.69 17.3L8.75 14.78L4.8 17.3C4.58 17.44 4.33 17.5 4.08 17.49C3.82 17.48 3.58 17.39 3.37 17.24C3.17 17.08 3.01 16.87 2.93 16.62C2.84 16.38 2.82 16.11 2.88 15.86L3.96 11.15L0.44 8C0.25 7.83 0.11 7.61 0.04 7.35C-0.03 7.1 -0.02 6.83 0.06 6.58C0.14 6.34 0.28 6.12 0.48 5.95C0.68 5.79 0.92 5.69 1.17 5.67L5.78 5.28L7.56 0.82C7.66 0.57 7.82 0.37 8.03 0.22C8.24 0.07 8.49 0 8.74 0C9 0 9.25 0.07 9.46 0.22C9.67 0.37 9.83 0.57 9.93 0.82C9.93 0.82 10.11 4.07 11.7 5.28C13.3 6.49 16.32 5.67 16.32 5.67C16.57 5.69 16.81 5.79 17.01 5.95C17.21 6.11 17.35 6.33 17.43 6.58C17.51 6.83 17.52 7.1 17.45 7.35C17.38 7.61 17.24 7.83 17.05 8L17.05 8Z" fill="#FFFFFF" fill-opacity="1.000000" fill-rule="nonzero"/>
</svg>
