<svg width="12.000000" height="12.000000" viewBox="0 0 12 12" fill="none" xmlns="http://www.w3.org/2000/svg" xmlns:xlink="http://www.w3.org/1999/xlink">
	<desc>
			Created with Pixso.
	</desc>
	<defs/>
	<path id="Vector" d="M1.78 0.29L6 4.5L10.18 0.31C10.28 0.21 10.39 0.13 10.51 0.08C10.64 0.03 10.77 0 10.9 0C11.19 0 11.47 0.11 11.68 0.31C11.88 0.52 11.99 0.8 11.99 1.09C12 1.22 11.97 1.35 11.92 1.48C11.87 1.6 11.8 1.71 11.7 1.81L7.46 5.99L11.7 10.24C11.88 10.41 11.99 10.65 11.99 10.9C11.99 11.19 11.88 11.47 11.68 11.67C11.47 11.88 11.19 11.99 10.9 11.99C10.76 12 10.63 11.98 10.5 11.93C10.37 11.88 10.25 11.8 10.15 11.7L6 7.49L1.8 11.69C1.7 11.78 1.59 11.86 1.47 11.91C1.35 11.96 1.22 11.99 1.09 11.99C0.8 11.99 0.52 11.88 0.31 11.67C0.11 11.47 0 11.19 0 10.9C-0.01 10.77 0.02 10.64 0.07 10.51C0.12 10.39 0.19 10.28 0.29 10.18L4.53 5.99L0.29 1.75C0.11 1.58 0 1.34 0 1.09C0 0.8 0.11 0.52 0.31 0.31C0.52 0.11 0.8 0 1.09 0C1.35 0 1.6 0.1 1.78 0.29Z" fill="#FFFFFF" fill-opacity="1.000000" fill-rule="nonzero"/>
</svg>
