<svg width="18.000000" height="18.000000" viewBox="0 0 18 18" fill="none" xmlns="http://www.w3.org/2000/svg" xmlns:xlink="http://www.w3.org/1999/xlink">
	<desc>
			Created with Pixso.
	</desc>
	<defs/>
	<path id="Vector" d="M18 9L18 16C18 16.53 17.78 17.03 17.41 17.41C17.03 17.78 16.53 18 16 18L2 18C1.46 18 0.96 17.78 0.58 17.41C0.21 17.03 0 16.53 0 16L0 9L18 9ZM13 0C13.26 0 13.51 0.1 13.7 0.29C13.89 0.48 14 0.73 14 1L14 2L16 2C16.53 2 17.03 2.21 17.41 2.58C17.78 2.96 18 3.46 18 4L18 7L0 7L0 4C0 3.46 0.21 2.96 0.58 2.58C0.96 2.21 1.46 2 2 2L4 2L4 1C4 0.73 4.1 0.48 4.29 0.29C4.48 0.1 4.73 0 5 0C5.26 0 5.51 0.1 5.7 0.29C5.89 0.48 6 0.73 6 1L6 2L12 2L12 1C12 0.73 12.1 0.48 12.29 0.29C12.48 0.1 12.73 0 13 0Z" fill="#FFFFFF" fill-opacity="1.000000" fill-rule="nonzero"/>
</svg>
