<svg width="20.000000" height="20.000732" viewBox="0 0 20 20.0007" fill="none" xmlns="http://www.w3.org/2000/svg" xmlns:xlink="http://www.w3.org/1999/xlink">
	<desc>
			Created with Pixso.
	</desc>
	<defs/>
	<path id="Vector" d="M9.4 16.16L16.79 8.76C15.55 8.24 14.42 7.48 13.47 6.53C12.51 5.57 11.75 4.44 11.23 3.2L3.83 10.59C3.26 11.17 2.97 11.46 2.72 11.78C2.43 12.15 2.18 12.56 1.97 12.99C1.8 13.35 1.67 13.74 1.41 14.52L0.05 18.6C-0.01 18.79 -0.02 18.99 0.02 19.18C0.07 19.37 0.17 19.55 0.31 19.69C0.44 19.82 0.62 19.92 0.81 19.97C1 20.01 1.21 20 1.39 19.94L5.48 18.58C6.25 18.32 6.64 18.19 7 18.02C7.43 17.81 7.84 17.56 8.21 17.27C8.53 17.02 8.82 16.73 9.4 16.16ZM18.84 6.71C19.58 5.97 20 4.97 20 3.93C20 2.88 19.58 1.88 18.84 1.15C18.11 0.41 17.11 0 16.06 0C15.02 0 14.02 0.41 13.28 1.15L12.4 2.03L12.43 2.14C12.87 3.4 13.59 4.53 14.53 5.46C15.49 6.43 16.66 7.16 17.96 7.59L18.84 6.71Z" fill="#FFFFFF" fill-opacity="1.000000" fill-rule="nonzero"/>
</svg>
