<svg width="14.250000" height="12.750000" viewBox="0 0 14.25 12.75" fill="none" xmlns="http://www.w3.org/2000/svg" xmlns:xlink="http://www.w3.org/1999/xlink">
	<desc>
			Created with Pixso.
	</desc>
	<defs/>
	<path id="Vector" d="M13.12 10.5C13.41 10.5 13.69 10.61 13.9 10.81C14.1 11.01 14.23 11.28 14.24 11.57C14.26 11.85 14.16 12.14 13.97 12.36C13.78 12.57 13.52 12.71 13.23 12.74L13.12 12.75L1.12 12.75C0.83 12.74 0.55 12.63 0.34 12.43C0.14 12.23 0.01 11.96 0 11.67C-0.02 11.39 0.08 11.1 0.27 10.88C0.46 10.67 0.72 10.53 1.01 10.5L1.12 10.5L13.12 10.5ZM13.12 5.25C13.42 5.25 13.7 5.36 13.92 5.57C14.13 5.79 14.25 6.07 14.25 6.37C14.25 6.67 14.13 6.95 13.92 7.17C13.7 7.38 13.42 7.5 13.12 7.5L1.12 7.5C0.82 7.5 0.54 7.38 0.32 7.17C0.11 6.95 0 6.67 0 6.37C0 6.07 0.11 5.79 0.32 5.57C0.54 5.36 0.82 5.25 1.12 5.25L13.12 5.25ZM13.12 0C13.42 0 13.7 0.11 13.92 0.32C14.13 0.54 14.25 0.82 14.25 1.12C14.25 1.42 14.13 1.7 13.92 1.92C13.7 2.13 13.42 2.25 13.12 2.25L1.12 2.25C0.82 2.25 0.54 2.13 0.32 1.92C0.11 1.7 0 1.42 0 1.12C0 0.82 0.11 0.54 0.32 0.32C0.54 0.11 0.82 0 1.12 0L13.12 0Z" fill="#EA5D39" fill-opacity="1.000000" fill-rule="nonzero"/>
</svg>
