<svg width="72.000000" height="72.000000" viewBox="0 0 72 72" fill="none" xmlns="http://www.w3.org/2000/svg" xmlns:xlink="http://www.w3.org/1999/xlink">
	<desc>
			Created with Pixso.
	</desc>
	<defs>
		<clipPath id="clip59_2322">
			<rect id="solar:passport-minimalistic-bold" rx="0.000000" width="71.000000" height="71.000000" transform="translate(0.500000 0.500000)" fill="white" fill-opacity="0"/>
		</clipPath>
	</defs>
	<rect id="solar:passport-minimalistic-bold" rx="0.000000" width="71.000000" height="71.000000" transform="translate(0.500000 0.500000)" fill="#FFFFFF" fill-opacity="0"/>
	<g clip-path="url(#clip59_2322)">
		<path id="Vector" d="M16.65 16.03C16.65 15.49 16.49 14.96 16.2 14.51C15.91 14.06 15.49 13.7 15 13.48C15.4 13.16 15.88 12.95 16.42 12.87L46.61 8.55C47.41 8.44 48.21 8.5 48.98 8.72C49.75 8.95 50.46 9.34 51.07 9.86C51.67 10.39 52.16 11.04 52.49 11.77C52.82 12.5 53 13.29 53 14.09L53 16.38C52.08 16.15 51.14 16.03 50.2 16.03L16.65 16.03ZM29.93 41.2C29.93 39.53 30.59 37.93 31.77 36.75C32.95 35.57 34.55 34.91 36.22 34.91C37.89 34.91 39.49 35.57 40.67 36.75C41.85 37.93 42.51 39.53 42.51 41.2C42.51 42.87 41.85 44.47 40.67 45.65C39.49 46.83 37.89 47.5 36.22 47.5C34.55 47.5 32.95 46.83 31.77 45.65C30.59 44.47 29.93 42.87 29.93 41.2Z" fill="#EA5D39" fill-opacity="1.000000" fill-rule="nonzero"/>
		<path id="Vector" d="M52.5 19.73C55.7 20.87 58 23.94 58 27.55L58 55.2C58 57.4 57.13 59.51 55.58 61.07C54.03 62.62 51.93 63.5 49.75 63.5L22.25 63.5C20.06 63.5 17.96 62.62 16.41 61.07C14.86 59.51 14 57.4 14 55.2L14 16.5C14 17.23 14.28 17.93 14.8 18.45C15.32 18.97 16.02 19.26 16.75 19.26L49.75 19.26C50.71 19.26 51.63 19.43 52.5 19.73ZM36 31.01C33.26 31.01 30.64 32.1 28.7 34.05C26.77 35.99 25.68 38.63 25.68 41.38C25.68 44.13 26.77 46.76 28.7 48.71C30.64 50.65 33.26 51.75 36 51.75C38.73 51.75 41.35 50.65 43.29 48.71C45.22 46.76 46.31 44.13 46.31 41.38C46.31 38.63 45.22 35.99 43.29 34.05C41.35 32.1 38.73 31.01 36 31.01Z" fill="#EA5D39" fill-opacity="1.000000" fill-rule="evenodd"/>
	</g>
</svg>
