<svg width="72.000000" height="72.000000" viewBox="0 0 72 72" fill="none" xmlns="http://www.w3.org/2000/svg" xmlns:xlink="http://www.w3.org/1999/xlink">
	<desc>
			Created with Pixso.
	</desc>
	<defs>
		<clipPath id="clip65_2893">
			<rect id="tabler:number-18-small" rx="0.000000" width="71.000000" height="71.000000" transform="translate(0.500000 0.500000)" fill="white" fill-opacity="0"/>
		</clipPath>
	</defs>
	<rect id="tabler:number-18-small" rx="0.000000" width="71.000000" height="71.000000" transform="translate(0.500000 0.500000)" fill="#FFFFFF" fill-opacity="0"/>
	<g clip-path="url(#clip65_2893)">
		<path id="Vector (Stroke)" d="M15 19C15 17.34 16.34 16 18 16L22.11 16C23.76 16 25.11 17.34 25.11 19L25.11 52C25.11 53.65 23.76 55 22.11 55C20.45 55 19.11 53.65 19.11 52L19.11 22L18 22C16.34 22 15 20.65 15 19ZM42.66 22C42.37 22 42.09 22.11 41.88 22.32C41.67 22.53 41.55 22.82 41.55 23.12L41.55 31.37C41.55 31.67 41.67 31.96 41.88 32.17C42.09 32.38 42.37 32.5 42.66 32.5L50.88 32.5C51.17 32.5 51.46 32.38 51.67 32.17C51.88 31.96 52 31.67 52 31.37L52 23.12C52 22.82 51.88 22.53 51.67 22.32C51.46 22.11 51.17 22 50.88 22L42.66 22ZM56.68 35.5C57.53 34.3 58 32.86 58 31.37L58 23.12C58 21.23 57.25 19.42 55.91 18.09C54.58 16.75 52.77 16 50.88 16L42.66 16C40.77 16 38.96 16.75 37.63 18.09C36.3 19.42 35.55 21.23 35.55 23.12L35.55 31.37C35.55 32.86 36.01 34.3 36.86 35.5C36.01 36.69 35.55 38.13 35.55 39.62L35.55 47.87C35.55 49.76 36.3 51.57 37.63 52.9C38.96 54.24 40.77 55 42.66 55L50.88 55C52.77 55 54.58 54.24 55.91 52.9C57.25 51.57 58 49.76 58 47.87L58 39.62C58 38.13 57.53 36.69 56.68 35.5ZM50.88 38.5L42.66 38.5C42.37 38.5 42.09 38.61 41.88 38.82C41.67 39.03 41.55 39.32 41.55 39.62L41.55 47.87C41.55 48.17 41.67 48.46 41.88 48.67C42.09 48.88 42.37 49 42.66 49L50.88 49C51.17 49 51.46 48.88 51.67 48.67C51.88 48.46 52 48.17 52 47.87L52 39.62C52 39.32 51.88 39.03 51.67 38.82C51.46 38.61 51.17 38.5 50.88 38.5Z" fill="#EA5D39" fill-opacity="1.000000" fill-rule="evenodd"/>
	</g>
</svg>
