<svg width="54.000000" height="54.000000" viewBox="0 0 54 54" fill="none" xmlns="http://www.w3.org/2000/svg" xmlns:xlink="http://www.w3.org/1999/xlink">
	<desc>
			Created with Pixso.
	</desc>
	<defs/>
	<path id="Vector" d="M32.93 48.43C36.34 43.03 38.33 36.42 38.71 29.37L49.14 29.37C48.65 33.8 46.85 37.99 43.96 41.39C41.07 44.79 37.23 47.24 32.93 48.43ZM4.85 29.37L15.28 29.37C15.66 36.39 17.65 43.03 21.06 48.43C16.76 47.24 12.92 44.79 10.03 41.39C7.14 37.99 5.34 33.8 4.85 29.37ZM21.06 5.56C17.65 10.96 15.66 17.57 15.28 24.65L4.85 24.65C5.33 20.21 7.14 16.02 10.02 12.61C12.91 9.21 16.75 6.75 21.06 5.56ZM33.99 29.37C33.7 36.35 31.26 43.06 27 48.6C22.73 43.06 20.28 36.33 20 29.34L33.99 29.37ZM19.98 24.65C20.26 17.65 22.71 10.91 27 5.37C31.27 10.91 33.71 17.65 33.99 24.65L19.98 24.65ZM49.14 24.65L38.69 24.65C38.41 17.9 36.42 11.33 32.91 5.56C37.21 6.75 41.05 9.21 43.94 12.61C46.83 16.02 48.63 20.21 49.11 24.65L49.14 24.65ZM27 0C19.83 0 12.97 2.84 7.9 7.9C2.84 12.97 0 19.83 0 27C0 34.16 2.84 41.02 7.9 46.09C12.97 51.15 19.83 54 27 54C34.16 54 41.02 51.15 46.09 46.09C51.15 41.02 54 34.16 54 27C54 19.83 51.15 12.97 46.09 7.9C41.02 2.84 34.16 0 27 0Z" fill="#EA5D39" fill-opacity="1.000000" fill-rule="nonzero"/>
</svg>
