<svg width="40.000000" height="57.142853" viewBox="0 0 40 57.1429" fill="none" xmlns="http://www.w3.org/2000/svg" xmlns:xlink="http://www.w3.org/1999/xlink">
	<desc>
			Created with Pixso.
	</desc>
	<defs/>
	<path id="Vector" d="M31.42 0C33.61 -0.01 35.71 0.83 37.3 2.33C38.9 3.83 39.85 5.88 39.98 8.06L40 8.57L40 48.57C40 50.75 39.16 52.86 37.66 54.45C36.16 56.04 34.11 57 31.93 57.12L31.42 57.14L8.57 57.14C6.38 57.14 4.28 56.3 2.69 54.8C1.09 53.3 0.14 51.25 0.01 49.07L0 48.57L0 8.57C0 6.38 0.83 4.28 2.33 2.69C3.83 1.09 5.88 0.14 8.06 0.01L8.57 0L31.42 0ZM20 40C19.3 40 18.62 40.25 18.1 40.72C17.57 41.18 17.24 41.82 17.16 42.52L17.14 42.85L17.16 43.22C17.24 43.91 17.58 44.55 18.1 45.01C18.62 45.48 19.3 45.73 20 45.73C20.69 45.73 21.37 45.48 21.89 45.01C22.41 44.55 22.75 43.91 22.83 43.22L22.85 42.88L22.83 42.52C22.75 41.82 22.42 41.18 21.89 40.72C21.37 40.25 20.69 40 20 40ZM22.85 5.71L17.14 5.71L16.8 5.73C16.11 5.81 15.47 6.15 15 6.67C14.54 7.19 14.28 7.87 14.28 8.57C14.28 9.27 14.54 9.94 15 10.46C15.47 10.99 16.11 11.32 16.8 11.4L17.14 11.42L22.85 11.42L23.19 11.4C23.88 11.32 24.52 10.99 24.99 10.46C25.45 9.94 25.71 9.27 25.71 8.57C25.71 7.87 25.45 7.19 24.99 6.67C24.52 6.15 23.88 5.81 23.19 5.73L22.85 5.71Z" fill="#EA5D39" fill-opacity="1.000000" fill-rule="nonzero"/>
</svg>
