<svg width="28.648438" height="25.476929" viewBox="0 0 28.6484 25.4769" fill="none" xmlns="http://www.w3.org/2000/svg" xmlns:xlink="http://www.w3.org/1999/xlink">
	<desc>
			Created with Pixso.
	</desc>
	<defs/>
	<path id="Vector" d="M17.15 10.55C16.9 10.3 16.56 10.16 16.2 10.16C15.85 10.16 15.51 10.3 15.26 10.55L14.32 11.49C13.82 11.98 13.14 12.25 12.44 12.24C11.75 12.23 11.08 11.95 10.58 11.46C10.09 10.97 9.81 10.3 9.8 9.6C9.79 8.9 10.06 8.22 10.55 7.72L18.06 0.21C19.83 -0.19 21.69 -0.03 23.37 0.69C25.05 1.4 26.46 2.63 27.4 4.19C28.34 5.75 28.76 7.56 28.61 9.38C28.46 11.2 27.74 12.92 26.56 14.3L23.75 17.15L17.15 10.55ZM2.53 2.54C3.91 1.16 5.72 0.28 7.66 0.05C9.59 -0.17 11.55 0.26 13.21 1.28L8.66 5.84C7.68 6.82 7.11 8.15 7.1 9.54C7.08 10.93 7.61 12.28 8.57 13.29C9.53 14.3 10.84 14.89 12.23 14.94C13.62 14.99 14.98 14.5 16.01 13.56L16.2 13.38L21.86 19.03L16.2 24.69C15.7 25.19 15.03 25.47 14.32 25.47C13.61 25.47 12.93 25.19 12.43 24.69L2.53 14.79C0.91 13.17 0 10.96 0 8.66C0 6.36 0.91 4.16 2.53 2.54Z" fill="#FFFFFF" fill-opacity="1.000000" fill-rule="nonzero"/>
</svg>
