<svg width="28.666016" height="26.549316" viewBox="0 0 28.666 26.5493" fill="none" xmlns="http://www.w3.org/2000/svg" xmlns:xlink="http://www.w3.org/1999/xlink">
	<desc>
			Created with Pixso.
	</desc>
	<defs/>
	<path id="Vector" d="M0 14.33C0 6.41 6.41 0 14.33 0C22.25 0 28.66 6.41 28.66 14.33C28.66 14.52 28.61 14.71 28.5 14.87C28.4 15.03 28.25 15.16 28.08 15.24C27.91 15.32 27.71 15.35 27.52 15.32C27.33 15.29 27.16 15.21 27.01 15.09C25.38 13.69 24.33 13.2 23.42 13.2C22.51 13.2 21.45 13.69 19.83 15.09C19.64 15.25 19.39 15.34 19.14 15.33C18.89 15.32 18.65 15.21 18.47 15.04C17.35 13.92 16.31 13.29 15.33 13.04L15.33 22.03C15.33 23.48 14.75 24.64 13.83 25.43C12.94 26.19 11.78 26.54 10.66 26.54C9.54 26.54 8.39 26.19 7.49 25.42C6.58 24.64 6 23.48 6 22.02C6 21.76 6.1 21.5 6.29 21.32C6.48 21.13 6.73 21.02 7 21.02C7.26 21.02 7.51 21.13 7.7 21.32C7.89 21.5 8 21.76 8 22.02C8 22.91 8.33 23.51 8.79 23.9C9.27 24.31 9.95 24.54 10.66 24.54C11.38 24.54 12.05 24.31 12.53 23.9C12.99 23.51 13.33 22.91 13.33 22.02L13.33 13.04C12.35 13.29 11.3 13.92 10.19 15.04C10.01 15.21 9.77 15.32 9.52 15.33C9.27 15.34 9.02 15.25 8.83 15.09C7.2 13.7 6.15 13.2 5.24 13.2C4.33 13.2 3.27 13.7 1.65 15.09C1.5 15.21 1.32 15.29 1.13 15.32C0.94 15.35 0.75 15.32 0.58 15.24C0.4 15.16 0.26 15.03 0.15 14.87C0.05 14.71 0 14.52 0 14.33Z" fill="#FFFFFF" fill-opacity="1.000000" fill-rule="nonzero"/>
</svg>
