<svg width="24.000000" height="25.333374" viewBox="0 0 24 25.3334" fill="none" xmlns="http://www.w3.org/2000/svg" xmlns:xlink="http://www.w3.org/1999/xlink">
	<desc>
			Created with Pixso.
	</desc>
	<defs/>
	<path id="Vector" d="M24 17.52L24 19.33C24 20.41 23.49 21.34 22.78 22.07C22.08 22.79 21.14 23.38 20.07 23.85C17.94 24.78 15.08 25.33 12 25.33C8.91 25.33 6.05 24.78 3.92 23.85C2.85 23.38 1.91 22.79 1.21 22.07C0.56 21.4 0.08 20.57 0 19.6L0 19.33L0 17.52C0.61 17.87 1.28 18.18 1.99 18.45C4.69 19.45 8.23 20.01 12 20.01C15.76 20.01 19.3 19.45 22 18.45C22.53 18.25 23.04 18.02 23.52 17.78L24 17.52ZM0 10.19C0.61 10.54 1.28 10.85 1.99 11.11C4.69 12.11 8.23 12.67 12 12.67C15.76 12.67 19.3 12.11 22 11.11C22.69 10.86 23.36 10.55 24 10.19L24 14.33C23.11 15.01 22.13 15.56 21.08 15.94C18.74 16.81 15.53 17.34 12 17.34C8.47 17.34 5.25 16.81 2.91 15.94C1.86 15.56 0.88 15.01 0 14.33L0 10.19ZM12 0C15.08 0 17.94 0.54 20.07 1.47C21.14 1.94 22.08 2.53 22.78 3.25C23.43 3.92 23.91 4.76 23.99 5.73L24 6L24 6.99C23.11 7.68 22.13 8.22 21.08 8.61C18.74 9.48 15.53 10.01 12 10.01C8.47 10.01 5.25 9.48 2.91 8.61C2.01 8.28 1.16 7.83 0.37 7.27L0 6.99L0 6C0 4.91 0.5 3.98 1.21 3.25C1.91 2.53 2.85 1.94 3.92 1.47C6.05 0.54 8.91 0 12 0Z" fill="#FFFFFF" fill-opacity="1.000000" fill-rule="nonzero"/>
</svg>
