<svg width="24.000000" height="24.000000" viewBox="0 0 24 24" fill="none" xmlns="http://www.w3.org/2000/svg" xmlns:xlink="http://www.w3.org/1999/xlink">
	<desc>
			Created with Pixso.
	</desc>
	<defs/>
	<path id="Vector" d="M24 12L24 21.33C24 22.04 23.71 22.71 23.21 23.21C22.71 23.71 22.04 24 21.33 24L2.66 24C1.95 24 1.28 23.71 0.78 23.21C0.28 22.71 0 22.04 0 21.33L0 12L24 12ZM17.33 0C17.68 0 18.02 0.14 18.27 0.39C18.52 0.64 18.66 0.97 18.66 1.33L18.66 2.66L21.33 2.66C22.04 2.66 22.71 2.94 23.21 3.44C23.71 3.94 24 4.62 24 5.33L24 9.33L0 9.33L0 5.33C0 4.62 0.28 3.94 0.78 3.44C1.28 2.94 1.95 2.66 2.66 2.66L5.33 2.66L5.33 1.33C5.33 0.97 5.47 0.64 5.72 0.39C5.97 0.14 6.31 0 6.66 0C7.01 0 7.35 0.14 7.6 0.39C7.85 0.64 8 0.97 8 1.33L8 2.66L16 2.66L16 1.33C16 0.97 16.14 0.64 16.39 0.39C16.64 0.14 16.98 0 17.33 0Z" fill="#FFFFFF" fill-opacity="1.000000" fill-rule="nonzero"/>
</svg>
