<svg width="25.333984" height="25.330688" viewBox="0 0 25.334 25.3307" fill="none" xmlns="http://www.w3.org/2000/svg" xmlns:xlink="http://www.w3.org/1999/xlink">
	<desc>
			Created with Pixso.
	</desc>
	<defs/>
	<path id="Vector" d="M9.33 0C9.57 -0.01 9.8 0.06 10.01 0.18C10.21 0.3 10.38 0.48 10.5 0.69L10.57 0.83L13.23 7.5C13.34 7.77 13.36 8.06 13.28 8.34C13.21 8.62 13.04 8.87 12.82 9.05L12.68 9.14L10.45 10.48L10.53 10.61C11.6 12.3 13.02 13.73 14.71 14.79L14.85 14.87L16.19 12.64C16.33 12.4 16.56 12.2 16.83 12.09C17.09 11.98 17.39 11.97 17.67 12.04L17.82 12.09L24.49 14.76C24.71 14.85 24.91 14.99 25.05 15.18C25.2 15.37 25.29 15.6 25.32 15.83L25.33 16L25.33 21.33C25.33 23.54 23.54 25.33 21.25 25.33C9.81 24.63 0.69 15.51 0 4C0 2.97 0.39 1.99 1.08 1.25C1.78 0.51 2.74 0.06 3.76 0L4 0L9.33 0Z" fill="#FFFFFF" fill-opacity="1.000000" fill-rule="nonzero"/>
</svg>
