<svg width="26.666016" height="26.666626" viewBox="0 0 26.666 26.6666" fill="none" xmlns="http://www.w3.org/2000/svg" xmlns:xlink="http://www.w3.org/1999/xlink">
	<desc>
			Created with Pixso.
	</desc>
	<defs/>
	<path id="Vector" d="M13.33 0C20.69 0 26.66 5.96 26.66 13.33L26.66 22.66C26.66 23.72 26.24 24.74 25.49 25.49C24.74 26.24 23.72 26.66 22.66 26.66L18.66 26.66C18.31 26.66 17.97 26.52 17.72 26.27C17.47 26.02 17.33 25.68 17.33 25.33L17.33 17.33C17.33 16.97 17.47 16.64 17.72 16.39C17.97 16.14 18.31 16 18.66 16L24.66 16L24.66 13.33C24.66 10.32 23.47 7.44 21.34 5.31C19.22 3.19 16.33 2 13.33 2C10.32 2 7.44 3.19 5.32 5.31C3.19 7.44 2 10.32 2 13.33L2 16L8 16C8.35 16 8.69 16.14 8.94 16.39C9.19 16.64 9.33 16.97 9.33 17.33L9.33 25.33C9.33 25.68 9.19 26.02 8.94 26.27C8.69 26.52 8.35 26.66 8 26.66L4 26.66C2.93 26.66 1.92 26.24 1.17 25.49C0.42 24.74 0 23.72 0 22.66L0 13.33C0 5.96 5.96 0 13.33 0Z" fill="#FFFFFF" fill-opacity="1.000000" fill-rule="nonzero"/>
</svg>
