<svg width="16.406250" height="16.406006" viewBox="0 0 16.4062 16.406" fill="none" xmlns="http://www.w3.org/2000/svg" xmlns:xlink="http://www.w3.org/1999/xlink">
	<desc>
			Created with Pixso.
	</desc>
	<defs/>
	<path id="Vector" d="M16.39 12.39C16.25 13.5 15.7 14.52 14.86 15.26C14.01 16 12.93 16.4 11.81 16.4C5.29 16.4 0 11.1 0 4.59C-0.01 3.47 0.4 2.38 1.14 1.54C1.88 0.7 2.9 0.15 4.01 0C4.29 -0.03 4.57 0.03 4.82 0.17C5.07 0.31 5.26 0.53 5.37 0.79L7.1 4.65L7.1 4.66C7.19 4.86 7.23 5.08 7.21 5.3C7.19 5.51 7.12 5.72 7 5.9C6.99 5.92 6.97 5.94 6.95 5.96L5.25 7.99C5.86 9.24 7.16 10.53 8.43 11.15L10.43 9.45C10.45 9.43 10.47 9.42 10.49 9.4C10.67 9.28 10.88 9.21 11.1 9.19C11.31 9.17 11.53 9.2 11.73 9.29L11.74 9.29L15.61 11.02C15.87 11.14 16.08 11.33 16.23 11.58C16.37 11.82 16.42 12.11 16.39 12.39Z" fill="#FFFFFF" fill-opacity="1.000000" fill-rule="nonzero"/>
</svg>
