<svg width="17.845703" height="17.500000" viewBox="0 0 17.8457 17.5" fill="none" xmlns="http://www.w3.org/2000/svg" xmlns:xlink="http://www.w3.org/1999/xlink">
	<desc>
			Created with Pixso.
	</desc>
	<defs/>
	<path id="Vector" d="M8.92 0C3.99 0 0 3.91 0 8.75C0 10.4 0.46 11.95 1.28 13.27L0.48 15.92C0.44 16.07 0.43 16.23 0.47 16.39C0.51 16.54 0.59 16.68 0.71 16.79C0.82 16.91 0.97 16.99 1.12 17.03C1.28 17.07 1.45 17.06 1.6 17.02L4.31 16.24C5.7 17.06 7.29 17.5 8.92 17.5C13.85 17.5 17.84 13.58 17.84 8.75C17.84 3.91 13.85 0 8.92 0ZM6.9 10.73C8.7 12.49 10.43 12.73 11.04 12.75C11.96 12.78 12.86 12.09 13.21 11.29C13.26 11.19 13.27 11.08 13.26 10.97C13.25 10.86 13.2 10.76 13.14 10.67C12.65 10.06 11.99 9.62 11.34 9.18C11.2 9.09 11.04 9.05 10.88 9.08C10.71 9.1 10.57 9.19 10.47 9.32L9.93 10.12C9.91 10.16 9.86 10.19 9.81 10.21C9.76 10.22 9.71 10.21 9.66 10.19C9.3 9.98 8.77 9.64 8.39 9.26C8.01 8.89 7.68 8.39 7.49 8.06C7.47 8.02 7.46 7.97 7.47 7.92C7.49 7.88 7.51 7.84 7.55 7.81L8.38 7.21C8.5 7.11 8.57 6.97 8.59 6.82C8.61 6.66 8.57 6.51 8.48 6.38C8.08 5.81 7.62 5.08 6.94 4.6C6.85 4.54 6.75 4.5 6.65 4.49C6.54 4.47 6.43 4.49 6.33 4.53C5.51 4.88 4.8 5.76 4.83 6.67C4.86 7.27 5.09 8.95 6.9 10.73Z" fill="#FFFFFF" fill-opacity="1.000000" fill-rule="evenodd"/>
</svg>
