<svg width="17.933594" height="15.023682" viewBox="0 0 17.9336 15.0237" fill="none" xmlns="http://www.w3.org/2000/svg" xmlns:xlink="http://www.w3.org/1999/xlink">
	<desc>
			Created with Pixso.
	</desc>
	<defs/>
	<path id="Vector" d="M16.07 0.1C16.29 0.01 16.53 -0.02 16.77 0.01C17.01 0.04 17.23 0.13 17.42 0.28C17.61 0.42 17.75 0.61 17.84 0.83C17.92 1.05 17.95 1.29 17.91 1.52L15.89 13.56C15.69 14.72 14.39 15.38 13.31 14.81C12.4 14.32 11.05 13.58 9.83 12.8C9.23 12.41 7.37 11.16 7.6 10.28C7.79 9.52 10.92 6.67 12.7 4.97C13.4 4.31 13.08 3.92 12.26 4.53C10.2 6.05 6.9 8.37 5.81 9.02C4.85 9.59 4.35 9.69 3.75 9.59C2.66 9.41 1.64 9.14 0.81 8.8C-0.31 8.35 -0.25 6.84 0.81 6.4L16.07 0.1Z" fill="#FFFFFF" fill-opacity="1.000000" fill-rule="evenodd"/>
</svg>
