<svg width="17.845703" height="14.000000" viewBox="0 0 17.8457 14" fill="none" xmlns="http://www.w3.org/2000/svg" xmlns:xlink="http://www.w3.org/1999/xlink">
	<desc>
			Created with Pixso.
	</desc>
	<defs/>
	<path id="Vector" d="M1.04 1.02C0 2.05 0 3.7 0 7C0 10.29 0 11.95 1.04 12.97C2.09 13.99 3.77 14 7.13 14L10.7 14C14.07 14 15.75 14 16.8 12.97C17.84 11.94 17.84 10.29 17.84 7C17.84 3.7 17.84 2.05 16.8 1.02C15.75 0 14.07 0 10.7 0L7.13 0C3.77 0 2.08 0 1.04 1.02ZM14.79 3.08C14.9 3.21 14.95 3.38 14.94 3.55C14.92 3.73 14.84 3.89 14.7 4L12.74 5.6C11.95 6.25 11.31 6.77 10.74 7.13C10.15 7.5 9.58 7.73 8.92 7.73C8.26 7.73 7.68 7.5 7.09 7.13C6.53 6.77 5.89 6.25 5.09 5.6L3.14 4C3 3.89 2.91 3.73 2.9 3.56C2.88 3.38 2.94 3.21 3.05 3.08C3.16 2.94 3.33 2.86 3.5 2.84C3.68 2.83 3.86 2.88 3.99 2.99L5.92 4.57C6.75 5.25 7.33 5.72 7.82 6.02C8.29 6.32 8.61 6.42 8.92 6.42C9.23 6.42 9.55 6.32 10.02 6.02C10.51 5.72 11.08 5.25 11.92 4.57L13.84 2.99C13.98 2.88 14.16 2.83 14.33 2.84C14.51 2.86 14.67 2.94 14.79 3.08Z" fill="#FFFFFF" fill-opacity="1.000000" fill-rule="evenodd"/>
</svg>
